# xmcd CD database file
#
# Track frame offsets:
#	150
#	20670
#	41097
#	67072
#	81897
#	104610
#	140330
#	164025
#	192917
#	215035
#
# Disc length: 3171 seconds
#
# Revision: 1
# Processed by: cddbd v1.5.1PL0 Copyright (c) Steve Scherf et al.
# Submitted via: CDex 1.51
#
DISCID=9b0c610a
DTITLE=Various Artist - JAZZ CRUISE 01 モーニング・カフェ
DYEAR=2001
DGENRE=Jazz
TTITLE0=慕情（ルー・マシューズ・トリオ）
TTITLE1=幻想のアダージョ（ヨーロピアン・ジャズ・トリオ） 
TTITLE2=タイム・オン・マイ・ハンズ（ホレス・パーラン・トリオ）
TTITLE3=アンネリース（デューク・ジョーダン）
TTITLE4=Cジャム・ブルース（レイ・ブライアント・トリオ）
TTITLE5=ドルフィン・ダンス（ビリー・チャイルズ・トリオ）
TTITLE6=亜麻色の髪の少女（ロジャー・ケラウェイ）
TTITLE7=テイターエスク（マンハッタン・トリニティ＋１）
TTITLE8=ワルツ・フォー・メアリー（ジョン・ウィリアムス）
TTITLE9=ファニー・シングス・ユー・ドゥ（トリオ・シュープリーム）
EXTD=YEAR: 2001
EXTT0=
EXTT1=
EXTT2=
EXTT3=
EXTT4=
EXTT5=
EXTT6=
EXTT7=
EXTT8=
EXTT9=
PLAYORDER=
